<mxfile host="app.diagrams.net" modified="2020-11-30T13:54:59.108Z" agent="5.0 (Macintosh; Intel Mac OS X 10_15_7) AppleWebKit/605.1.15 (KHTML, like Gecko) Version/14.0.1 Safari/605.1.15" etag="QSN5qeTMNnguBfWHraX7" version="13.10.4" type="github">
  <diagram name="Page-1" id="c4acf3e9-155e-7222-9cf6-157b1a14988f">
    <mxGraphModel dx="2066" dy="842" grid="1" gridSize="10" guides="1" tooltips="1" connect="1" arrows="1" fold="1" page="1" pageScale="1" pageWidth="850" pageHeight="1100" background="#ffffff" math="0" shadow="0">
      <root>
        <mxCell id="0" />
        <mxCell id="1" parent="0" />
        <mxCell id="YTRROF7AAzYIW9vtYWbR-4" style="rounded=0;orthogonalLoop=1;jettySize=auto;html=1;entryX=0.007;entryY=0.414;entryDx=0;entryDy=0;entryPerimeter=0;endArrow=none;endFill=0;" parent="1" source="YTRROF7AAzYIW9vtYWbR-1" target="YTRROF7AAzYIW9vtYWbR-2" edge="1">
          <mxGeometry relative="1" as="geometry" />
        </mxCell>
        <mxCell id="YTRROF7AAzYIW9vtYWbR-6" style="edgeStyle=none;rounded=0;orthogonalLoop=1;jettySize=auto;html=1;entryX=0;entryY=0.5;entryDx=0;entryDy=0;endArrow=none;endFill=0;" parent="1" source="YTRROF7AAzYIW9vtYWbR-1" target="YTRROF7AAzYIW9vtYWbR-5" edge="1">
          <mxGeometry relative="1" as="geometry" />
        </mxCell>
        <mxCell id="YTRROF7AAzYIW9vtYWbR-8" style="edgeStyle=none;rounded=0;orthogonalLoop=1;jettySize=auto;html=1;entryX=0;entryY=0.5;entryDx=0;entryDy=0;endArrow=none;endFill=0;" parent="1" source="YTRROF7AAzYIW9vtYWbR-1" target="YTRROF7AAzYIW9vtYWbR-7" edge="1">
          <mxGeometry relative="1" as="geometry" />
        </mxCell>
        <mxCell id="YTRROF7AAzYIW9vtYWbR-10" style="edgeStyle=none;rounded=0;orthogonalLoop=1;jettySize=auto;html=1;entryX=0;entryY=0.5;entryDx=0;entryDy=0;endArrow=none;endFill=0;" parent="1" source="YTRROF7AAzYIW9vtYWbR-1" target="YTRROF7AAzYIW9vtYWbR-9" edge="1">
          <mxGeometry relative="1" as="geometry" />
        </mxCell>
        <mxCell id="YTRROF7AAzYIW9vtYWbR-12" style="edgeStyle=none;rounded=0;orthogonalLoop=1;jettySize=auto;html=1;entryX=0;entryY=0.5;entryDx=0;entryDy=0;endArrow=none;endFill=0;" parent="1" source="YTRROF7AAzYIW9vtYWbR-1" target="YTRROF7AAzYIW9vtYWbR-11" edge="1">
          <mxGeometry relative="1" as="geometry" />
        </mxCell>
        <mxCell id="YTRROF7AAzYIW9vtYWbR-28" style="edgeStyle=none;rounded=0;orthogonalLoop=1;jettySize=auto;html=1;entryX=0;entryY=0.5;entryDx=0;entryDy=0;endArrow=none;endFill=0;" parent="1" source="YTRROF7AAzYIW9vtYWbR-1" target="YTRROF7AAzYIW9vtYWbR-27" edge="1">
          <mxGeometry relative="1" as="geometry" />
        </mxCell>
        <mxCell id="YTRROF7AAzYIW9vtYWbR-1" value="Собственник" style="shape=umlActor;verticalLabelPosition=bottom;verticalAlign=top;html=1;" parent="1" vertex="1">
          <mxGeometry x="70" y="240" width="30" height="60" as="geometry" />
        </mxCell>
        <mxCell id="YTRROF7AAzYIW9vtYWbR-2" value="Заключение договора с УК" style="ellipse;whiteSpace=wrap;html=1;" parent="1" vertex="1">
          <mxGeometry x="240" y="130" width="140" height="70" as="geometry" />
        </mxCell>
        <mxCell id="YTRROF7AAzYIW9vtYWbR-5" value="Оплата коммунальных услуг" style="ellipse;whiteSpace=wrap;html=1;" parent="1" vertex="1">
          <mxGeometry x="240" y="240" width="140" height="70" as="geometry" />
        </mxCell>
        <mxCell id="YTRROF7AAzYIW9vtYWbR-7" value="Заявление на обслуживание" style="ellipse;whiteSpace=wrap;html=1;" parent="1" vertex="1">
          <mxGeometry x="240" y="350" width="140" height="70" as="geometry" />
        </mxCell>
        <mxCell id="YTRROF7AAzYIW9vtYWbR-9" value="Обратная связь по работе УК" style="ellipse;whiteSpace=wrap;html=1;" parent="1" vertex="1">
          <mxGeometry x="240" y="470" width="140" height="70" as="geometry" />
        </mxCell>
        <mxCell id="YTRROF7AAzYIW9vtYWbR-11" value="Расторжение договора с УК" style="ellipse;whiteSpace=wrap;html=1;" parent="1" vertex="1">
          <mxGeometry x="240" y="590" width="140" height="70" as="geometry" />
        </mxCell>
        <mxCell id="YTRROF7AAzYIW9vtYWbR-17" style="edgeStyle=none;rounded=0;orthogonalLoop=1;jettySize=auto;html=1;entryX=1;entryY=0.5;entryDx=0;entryDy=0;endArrow=none;endFill=0;" parent="1" source="YTRROF7AAzYIW9vtYWbR-15" target="YTRROF7AAzYIW9vtYWbR-2" edge="1">
          <mxGeometry relative="1" as="geometry" />
        </mxCell>
        <mxCell id="YTRROF7AAzYIW9vtYWbR-18" style="edgeStyle=none;rounded=0;orthogonalLoop=1;jettySize=auto;html=1;entryX=1;entryY=0.5;entryDx=0;entryDy=0;endArrow=none;endFill=0;" parent="1" source="YTRROF7AAzYIW9vtYWbR-15" target="YTRROF7AAzYIW9vtYWbR-5" edge="1">
          <mxGeometry relative="1" as="geometry" />
        </mxCell>
        <mxCell id="YTRROF7AAzYIW9vtYWbR-19" style="edgeStyle=none;rounded=0;orthogonalLoop=1;jettySize=auto;html=1;entryX=1;entryY=0.5;entryDx=0;entryDy=0;endArrow=none;endFill=0;" parent="1" source="YTRROF7AAzYIW9vtYWbR-15" target="YTRROF7AAzYIW9vtYWbR-7" edge="1">
          <mxGeometry relative="1" as="geometry" />
        </mxCell>
        <mxCell id="YTRROF7AAzYIW9vtYWbR-20" style="edgeStyle=none;rounded=0;orthogonalLoop=1;jettySize=auto;html=1;entryX=1;entryY=0.5;entryDx=0;entryDy=0;endArrow=none;endFill=0;" parent="1" source="YTRROF7AAzYIW9vtYWbR-15" target="YTRROF7AAzYIW9vtYWbR-9" edge="1">
          <mxGeometry relative="1" as="geometry" />
        </mxCell>
        <mxCell id="YTRROF7AAzYIW9vtYWbR-21" style="edgeStyle=none;rounded=0;orthogonalLoop=1;jettySize=auto;html=1;entryX=1;entryY=0.5;entryDx=0;entryDy=0;endArrow=none;endFill=0;" parent="1" source="YTRROF7AAzYIW9vtYWbR-15" target="YTRROF7AAzYIW9vtYWbR-11" edge="1">
          <mxGeometry relative="1" as="geometry" />
        </mxCell>
        <mxCell id="YTRROF7AAzYIW9vtYWbR-25" style="edgeStyle=none;rounded=0;orthogonalLoop=1;jettySize=auto;html=1;entryX=0;entryY=0.5;entryDx=0;entryDy=0;endArrow=none;endFill=0;" parent="1" source="YTRROF7AAzYIW9vtYWbR-15" target="YTRROF7AAzYIW9vtYWbR-24" edge="1">
          <mxGeometry relative="1" as="geometry" />
        </mxCell>
        <mxCell id="YTRROF7AAzYIW9vtYWbR-29" style="edgeStyle=none;rounded=0;orthogonalLoop=1;jettySize=auto;html=1;entryX=0;entryY=0.5;entryDx=0;entryDy=0;endArrow=none;endFill=0;" parent="1" source="YTRROF7AAzYIW9vtYWbR-15" target="YTRROF7AAzYIW9vtYWbR-26" edge="1">
          <mxGeometry relative="1" as="geometry" />
        </mxCell>
        <mxCell id="YTRROF7AAzYIW9vtYWbR-31" style="edgeStyle=none;rounded=0;orthogonalLoop=1;jettySize=auto;html=1;entryX=0;entryY=0.5;entryDx=0;entryDy=0;endArrow=none;endFill=0;" parent="1" source="YTRROF7AAzYIW9vtYWbR-15" target="YTRROF7AAzYIW9vtYWbR-30" edge="1">
          <mxGeometry relative="1" as="geometry" />
        </mxCell>
        <mxCell id="YTRROF7AAzYIW9vtYWbR-33" style="edgeStyle=none;rounded=0;orthogonalLoop=1;jettySize=auto;html=1;entryX=0;entryY=0.5;entryDx=0;entryDy=0;endArrow=none;endFill=0;" parent="1" source="YTRROF7AAzYIW9vtYWbR-15" target="YTRROF7AAzYIW9vtYWbR-32" edge="1">
          <mxGeometry relative="1" as="geometry" />
        </mxCell>
        <mxCell id="YTRROF7AAzYIW9vtYWbR-15" value="Администратор УК" style="shape=umlActor;verticalLabelPosition=bottom;verticalAlign=top;html=1;" parent="1" vertex="1">
          <mxGeometry x="510" y="230" width="30" height="60" as="geometry" />
        </mxCell>
        <mxCell id="YTRROF7AAzYIW9vtYWbR-24" value="Заведение новых участков" style="ellipse;whiteSpace=wrap;html=1;" parent="1" vertex="1">
          <mxGeometry x="630" y="130" width="140" height="70" as="geometry" />
        </mxCell>
        <mxCell id="YTRROF7AAzYIW9vtYWbR-26" value="Уведомление собственников" style="ellipse;whiteSpace=wrap;html=1;" parent="1" vertex="1">
          <mxGeometry x="630" y="225" width="140" height="70" as="geometry" />
        </mxCell>
        <mxCell id="YTRROF7AAzYIW9vtYWbR-27" value="Изменение персональных данных" style="ellipse;whiteSpace=wrap;html=1;" parent="1" vertex="1">
          <mxGeometry x="240" y="30" width="140" height="70" as="geometry" />
        </mxCell>
        <mxCell id="YTRROF7AAzYIW9vtYWbR-30" value="Управленческая отчетность" style="ellipse;whiteSpace=wrap;html=1;" parent="1" vertex="1">
          <mxGeometry x="630" y="350" width="140" height="70" as="geometry" />
        </mxCell>
        <mxCell id="YTRROF7AAzYIW9vtYWbR-32" value="Договоры с контрагентами" style="ellipse;whiteSpace=wrap;html=1;" parent="1" vertex="1">
          <mxGeometry x="630" y="460" width="140" height="70" as="geometry" />
        </mxCell>
        <mxCell id="u6qcltiycJHpj6jxVTmr-5" style="edgeStyle=none;rounded=0;orthogonalLoop=1;jettySize=auto;html=1;entryX=1;entryY=0;entryDx=0;entryDy=0;endArrow=none;endFill=0;dashed=1;" edge="1" parent="1" source="u6qcltiycJHpj6jxVTmr-2" target="YTRROF7AAzYIW9vtYWbR-26">
          <mxGeometry relative="1" as="geometry" />
        </mxCell>
        <mxCell id="u6qcltiycJHpj6jxVTmr-2" value="Новостное информирование" style="ellipse;whiteSpace=wrap;html=1;" vertex="1" parent="1">
          <mxGeometry x="810" y="190" width="140" height="70" as="geometry" />
        </mxCell>
        <mxCell id="u6qcltiycJHpj6jxVTmr-6" style="edgeStyle=none;rounded=0;orthogonalLoop=1;jettySize=auto;html=1;entryX=1;entryY=1;entryDx=0;entryDy=0;dashed=1;endArrow=none;endFill=0;" edge="1" parent="1" source="u6qcltiycJHpj6jxVTmr-3" target="YTRROF7AAzYIW9vtYWbR-26">
          <mxGeometry relative="1" as="geometry" />
        </mxCell>
        <mxCell id="u6qcltiycJHpj6jxVTmr-3" value="Уведомление о задолженности" style="ellipse;whiteSpace=wrap;html=1;" vertex="1" parent="1">
          <mxGeometry x="820" y="290" width="140" height="70" as="geometry" />
        </mxCell>
      </root>
    </mxGraphModel>
  </diagram>
</mxfile>
